# xmcd CD database file
#
# Track frame offsets:
#	150
#	1757
#	18599
#	32610
#	46723
#	68147
#	85838
#	104464
#	123940
#	146781
#	164254
#	182290
#	202365
#	223424
#	248626
#
# Disc length: 3365 seconds
#
# Revision: 0
# Processed by: cddbd v1.5.2PL0 Copyright (c) Steve Scherf et al.
# Submitted via: CDex 1.70beta2
#
DISCID=cb0d230f
DTITLE=Jonny Lang - Turn Around
DYEAR=1900
DGENRE=Blues
TTITLE0=Intro
TTITLE1=Bump In The Road
TTITLE2=One Person At A Time
TTITLE3=The Other Side Of The Fence
TTITLE4=Turn Around
TTITLE5=My Love Remains
TTITLE6=Thankful
TTITLE7=Only A Man
TTITLE8=Don't Stop (For Anything)
TTITLE9=Anything's Possible
TTITLE10=Last Goodbye
TTITLE11=On My Feet Again
TTITLE12=That Great Day
TTITLE13=It's Not Over
TTITLE14=Outro
EXTD=
EXTT0=
EXTT1=
EXTT2=
EXTT3=
EXTT4=
EXTT5=
EXTT6=
EXTT7=
EXTT8=
EXTT9=
EXTT10=
EXTT11=
EXTT12=
EXTT13=
EXTT14=
PLAYORDER=
